<?xml version="1.0" encoding="UTF-8"?>
<!DOCTYPE svg PUBLIC "-//W3C//DTD SVG 1.1//EN" "http://www.w3.org/Graphics/SVG/1.1/DTD/svg11.dtd">
<svg xmlns="http://www.w3.org/2000/svg" xmlns:xlink="http://www.w3.org/1999/xlink" version="1.1" width="602" height="502" viewBox="-0.5 -0.5 602 502"><defs><filter id="dropShadow"><feGaussianBlur in="SourceAlpha" stdDeviation="1.7" result="blur"/><feOffset in="blur" dx="3" dy="3" result="offsetBlur"/><feFlood flood-color="#3D4574" flood-opacity="0.4" result="offsetColor"/><feComposite in="offsetColor" in2="offsetBlur" operator="in" result="offsetBlur"/><feBlend in="SourceGraphic" in2="offsetBlur"/></filter></defs><g filter="url(#dropShadow)"><path d="M 257.03 80 L 257.03 90 Q 257.03 100 257.03 95 L 257.03 92.5 Q 257.03 90 257.03 96.82 L 257.03 103.63" fill="none" stroke="rgb(240, 240, 240)" stroke-miterlimit="10" pointer-events="stroke"/><path d="M 257.03 108.88 L 254.7 101.88 L 257.03 103.63 L 259.36 101.88 Z" fill="rgb(240, 240, 240)" stroke="rgb(240, 240, 240)" stroke-miterlimit="10" pointer-events="all"/><path d="M 243.43 40 L 270.57 40 C 282.41 40 292 48.95 292 60 C 292 71.05 282.41 80 270.57 80 L 243.43 80 C 231.59 80 222 71.05 222 60 C 222 48.95 231.59 40 243.43 40 Z" fill="rgb(24, 20, 29)" stroke="rgb(240, 240, 240)" stroke-width="2" stroke-miterlimit="10" pointer-events="all"/><g fill="rgb(240, 240, 240)" font-family="Helvetica" text-anchor="middle" font-size="12px"><text x="256.5" y="64.5">开始</text></g><path d="M 257.03 150 L 257.03 160 Q 257.03 170 257.03 160 L 257.03 155 Q 257.03 150 257.02 156.82 L 257.01 163.63" fill="none" stroke="rgb(240, 240, 240)" stroke-miterlimit="10" pointer-events="stroke"/><path d="M 257 168.88 L 254.68 161.88 L 257.01 163.63 L 259.34 161.89 Z" fill="rgb(240, 240, 240)" stroke="rgb(240, 240, 240)" stroke-miterlimit="10" pointer-events="all"/><rect x="207" y="110" width="100" height="40" rx="6" ry="6" fill="rgb(24, 20, 29)" stroke="rgb(240, 240, 240)" pointer-events="all"/><g fill="rgb(240, 240, 240)" font-family="Helvetica" text-anchor="middle" font-size="12px"><text x="256.5" y="134.5">初始化设备</text></g><path d="M 257 390 L 257 423.63" fill="none" stroke="rgb(240, 240, 240)" stroke-miterlimit="10" pointer-events="stroke"/><path d="M 257 428.88 L 254.67 421.88 L 257 423.63 L 259.33 421.88 Z" fill="rgb(240, 240, 240)" stroke="rgb(240, 240, 240)" stroke-miterlimit="10" pointer-events="all"/><rect x="197" y="350" width="120" height="40" rx="6" ry="6" fill="rgb(24, 20, 29)" stroke="rgb(240, 240, 240)" pointer-events="all"/><g fill="rgb(240, 240, 240)" font-family="Helvetica" text-anchor="middle" font-size="12px"><text x="256.5" y="374.5">检测蚊虫数量及位置</text></g><path d="M 257 210 L 257 243.63" fill="none" stroke="rgb(240, 240, 240)" stroke-miterlimit="10" pointer-events="stroke"/><path d="M 257 248.88 L 254.67 241.88 L 257 243.63 L 259.33 241.88 Z" fill="rgb(240, 240, 240)" stroke="rgb(240, 240, 240)" stroke-miterlimit="10" pointer-events="all"/><rect x="207" y="170" width="100" height="40" rx="6" ry="6" fill="rgb(24, 20, 29)" stroke="rgb(240, 240, 240)" pointer-events="all"/><g fill="rgb(240, 240, 240)" font-family="Helvetica" text-anchor="middle" font-size="12px"><text x="256.5" y="194.5">打开摄像头</text></g><path d="M 197 280 L 172 280 Q 162 280 162 270 L 162 155.03 Q 162 145.03 152 145.03 L 92 145.03 Q 82 145.03 82 151.83 L 82 158.63" fill="none" stroke="rgb(240, 240, 240)" stroke-miterlimit="10" pointer-events="stroke"/><path d="M 82 163.88 L 79.67 156.88 L 82 158.63 L 84.33 156.88 Z" fill="rgb(240, 240, 240)" stroke="rgb(240, 240, 240)" stroke-miterlimit="10" pointer-events="all"/><path d="M 257 310 L 257 343.63" fill="none" stroke="rgb(240, 240, 240)" stroke-miterlimit="10" pointer-events="stroke"/><path d="M 257 348.88 L 254.67 341.88 L 257 343.63 L 259.33 341.88 Z" fill="rgb(240, 240, 240)" stroke="rgb(240, 240, 240)" stroke-miterlimit="10" pointer-events="all"/><path d="M 257 250 L 317 280 L 257 310 L 197 280 Z" fill="rgb(24, 20, 29)" stroke="rgb(240, 240, 240)" stroke-miterlimit="10" pointer-events="all"/><g fill="rgb(240, 240, 240)" font-family="Helvetica" text-anchor="middle" font-size="12px"><text x="256.5" y="282.5">系统运行中？</text></g><path d="M 467.03 140 L 467.03 150 Q 467.03 160 467.03 152.51 L 467.03 148.77 Q 467.03 145.03 467.02 151.83 L 467.01 158.63" fill="none" stroke="rgb(240, 240, 240)" stroke-miterlimit="10" pointer-events="stroke"/><path d="M 467 163.88 L 464.68 156.88 L 467.01 158.63 L 469.34 156.89 Z" fill="rgb(240, 240, 240)" stroke="rgb(240, 240, 240)" stroke-miterlimit="10" pointer-events="all"/><rect x="407" y="100" width="120" height="40" rx="6" ry="6" fill="rgb(24, 20, 29)" stroke="rgb(240, 240, 240)" pointer-events="all"/><g fill="rgb(240, 240, 240)" font-family="Helvetica" text-anchor="middle" font-size="12px"><text x="466.5" y="117.5">将蚊虫的位置坐</text><text x="466.5" y="131.5">标发送给下位机</text></g><path d="M 467.03 205 L 467.03 215.03 Q 467.03 225.03 467.03 217.51 L 467.03 213.76 Q 467.03 210 467.02 216.82 L 467.01 223.63" fill="none" stroke="rgb(240, 240, 240)" stroke-miterlimit="10" pointer-events="stroke"/><path d="M 467 228.88 L 464.68 221.88 L 467.01 223.63 L 469.34 221.89 Z" fill="rgb(240, 240, 240)" stroke="rgb(240, 240, 240)" stroke-miterlimit="10" pointer-events="all"/><rect x="397" y="165" width="140" height="40" rx="6" ry="6" fill="rgb(24, 20, 29)" stroke="rgb(240, 240, 240)" pointer-events="all"/><g fill="rgb(240, 240, 240)" font-family="Helvetica" text-anchor="middle" font-size="12px"><text x="466.5" y="182.5">移动平台的 x、y 轴移</text><text x="466.5" y="196.5">动到相应的位置</text></g><path d="M 467.03 270 L 467.03 280 Q 467.03 290 467.03 285 L 467.03 282.5 Q 467.03 280 467.02 286.82 L 467.01 293.63" fill="none" stroke="rgb(240, 240, 240)" stroke-miterlimit="10" pointer-events="stroke"/><path d="M 467 298.88 L 464.68 291.88 L 467.01 293.63 L 469.34 291.89 Z" fill="rgb(240, 240, 240)" stroke="rgb(240, 240, 240)" stroke-miterlimit="10" pointer-events="all"/><rect x="422" y="230" width="90" height="40" rx="6" ry="6" fill="rgb(24, 20, 29)" stroke="rgb(240, 240, 240)" pointer-events="all"/><g fill="rgb(240, 240, 240)" font-family="Helvetica" text-anchor="middle" font-size="12px"><text x="466.5" y="254.5">拍照</text></g><path d="M 527 330 L 577.03 330 Q 587.03 330 587.03 320 L 587.03 80 Q 587.03 70 577.03 70 L 473.37 70" fill="none" stroke="rgb(240, 240, 240)" stroke-miterlimit="10" pointer-events="stroke"/><path d="M 468.12 70 L 475.12 67.67 L 473.37 70 L 475.12 72.33 Z" fill="rgb(240, 240, 240)" stroke="rgb(240, 240, 240)" stroke-miterlimit="10" pointer-events="all"/><path d="M 467.03 359.99 L 467.03 370 Q 467.03 380 467.03 375 L 467.03 372.5 Q 467.03 370 467.03 376.82 L 467.03 383.63" fill="none" stroke="rgb(240, 240, 240)" stroke-miterlimit="10" pointer-events="stroke"/><path d="M 467.03 388.88 L 464.7 381.88 L 467.03 383.63 L 469.36 381.88 Z" fill="rgb(240, 240, 240)" stroke="rgb(240, 240, 240)" stroke-miterlimit="10" pointer-events="all"/><path d="M 467 300 L 527 330 L 467 360 L 407 330 Z" fill="rgb(24, 20, 29)" stroke="rgb(240, 240, 240)" stroke-miterlimit="10" pointer-events="all"/><g fill="rgb(240, 240, 240)" font-family="Helvetica" text-anchor="middle" font-size="12px"><text x="466.5" y="332.5">坐标发送完毕？</text></g><path d="M 82 280 L 82 313.63" fill="none" stroke="rgb(240, 240, 240)" stroke-miterlimit="10" pointer-events="stroke"/><path d="M 82 318.88 L 79.67 311.88 L 82 313.63 L 84.33 311.88 Z" fill="rgb(240, 240, 240)" stroke="rgb(240, 240, 240)" stroke-miterlimit="10" pointer-events="all"/><rect x="37" y="240" width="90" height="40" rx="6" ry="6" fill="rgb(24, 20, 29)" stroke="rgb(240, 240, 240)" pointer-events="all"/><g fill="rgb(240, 240, 240)" font-family="Helvetica" text-anchor="middle" font-size="12px"><text x="81.5" y="264.5">初始化设备</text></g><path d="M 82 205 L 82 215.03 Q 82 225.03 82 222.51 L 82 221.26 Q 82 220 82 226.82 L 82 233.63" fill="none" stroke="rgb(240, 240, 240)" stroke-miterlimit="10" pointer-events="stroke"/><path d="M 82 238.88 L 79.67 231.88 L 82 233.63 L 84.33 231.88 Z" fill="rgb(240, 240, 240)" stroke="rgb(240, 240, 240)" stroke-miterlimit="10" pointer-events="all"/><rect x="37" y="165" width="90" height="40" rx="6" ry="6" fill="rgb(24, 20, 29)" stroke="rgb(240, 240, 240)" pointer-events="all"/><g fill="rgb(240, 240, 240)" font-family="Helvetica" text-anchor="middle" font-size="12px"><text x="81.5" y="189.5">关闭摄像头</text></g><path d="M 68.43 320 L 95.57 320 C 107.41 320 117 328.95 117 340 C 117 351.05 107.41 360 95.57 360 L 68.43 360 C 56.59 360 47 351.05 47 340 C 47 328.95 56.59 320 68.43 320 Z" fill="rgb(24, 20, 29)" stroke="rgb(240, 240, 240)" stroke-width="2" stroke-miterlimit="10" pointer-events="all"/><g fill="rgb(240, 240, 240)" font-family="Helvetica" text-anchor="middle" font-size="12px"><text x="81.5" y="344.5">结束</text></g><path d="M 467.03 430 L 467.03 435 Q 467.03 440 457.03 440 L 377.03 440 Q 367.03 440 367.03 430 L 367.03 240 Q 367.03 230 357.03 230 L 263.37 230" fill="none" stroke="rgb(240, 240, 240)" stroke-miterlimit="10" pointer-events="stroke"/><path d="M 258.12 230 L 265.12 227.67 L 263.37 230 L 265.12 232.33 Z" fill="rgb(240, 240, 240)" stroke="rgb(240, 240, 240)" stroke-miterlimit="10" pointer-events="all"/><rect x="422" y="390" width="90" height="40" rx="6" ry="6" fill="rgb(24, 20, 29)" stroke="rgb(240, 240, 240)" pointer-events="all"/><g fill="rgb(240, 240, 240)" font-family="Helvetica" text-anchor="middle" font-size="12px"><text x="466.5" y="414.5">初始化设备</text></g><rect x="527" y="310" width="25" height="20" fill="none" stroke="none" pointer-events="all"/><g fill="rgb(240, 240, 240)" font-family="Helvetica" font-weight="bold" text-anchor="middle" font-size="11px"><text x="539" y="324">No</text></g><rect x="437" y="360" width="25" height="20" fill="none" stroke="none" pointer-events="all"/><g fill="rgb(240, 240, 240)" font-family="Helvetica" font-weight="bold" text-anchor="middle" font-size="11px"><text x="449" y="374">Yes</text></g><rect x="222" y="320" width="25" height="20" fill="none" stroke="none" pointer-events="all"/><g fill="rgb(240, 240, 240)" font-family="Helvetica" font-weight="bold" text-anchor="middle" font-size="11px"><text x="234" y="334">Yes</text></g><rect x="172" y="260" width="25" height="20" fill="none" stroke="none" pointer-events="all"/><g fill="rgb(240, 240, 240)" font-family="Helvetica" font-weight="bold" text-anchor="middle" font-size="11px"><text x="184" y="274">No</text></g><path d="M 177.04 462.51 L 17.03 462.51 Q 7.03 462.51 7.03 452.51 L 7.03 30 Q 7.03 20 17.03 20 L 400.63 20" fill="none" stroke="rgb(240, 240, 240)" stroke-miterlimit="10" pointer-events="stroke"/><path d="M 405.88 20 L 398.88 22.33 L 400.63 20 L 398.88 17.67 Z" fill="rgb(240, 240, 240)" stroke="rgb(240, 240, 240)" stroke-miterlimit="10" pointer-events="all"/><path d="M 336.96 462.51 L 397.03 462.51 Q 407.03 462.51 407.02 454.44 L 407.01 446.37" fill="none" stroke="rgb(240, 240, 240)" stroke-miterlimit="10" pointer-events="stroke"/><path d="M 407 441.12 L 409.34 448.12 L 407.01 446.37 L 404.68 448.12 Z" fill="rgb(240, 240, 240)" stroke="rgb(240, 240, 240)" stroke-miterlimit="10" pointer-events="all"/><path d="M 257 430 L 337 462.5 L 257 495 L 177 462.5 Z" fill="rgb(24, 20, 29)" stroke="rgb(240, 240, 240)" stroke-miterlimit="10" pointer-events="all"/><g fill="rgb(240, 240, 240)" font-family="Helvetica" text-anchor="middle" font-size="12px"><text x="256.5" y="465">蚊虫数量达到目标值？</text></g><path d="M 467 40 L 467 93.63" fill="none" stroke="rgb(240, 240, 240)" stroke-miterlimit="10" pointer-events="stroke"/><path d="M 467 98.88 L 464.67 91.88 L 467 93.63 L 469.33 91.88 Z" fill="rgb(240, 240, 240)" stroke="rgb(240, 240, 240)" stroke-miterlimit="10" pointer-events="all"/><rect x="407" y="0" width="120" height="40" rx="6" ry="6" fill="rgb(24, 20, 29)" stroke="rgb(240, 240, 240)" pointer-events="all"/><g fill="rgb(240, 240, 240)" font-family="Helvetica" text-anchor="middle" font-size="12px"><text x="466.5" y="24.5">三轴平台 Z 轴上升</text></g><rect x="147" y="440" width="25" height="20" fill="none" stroke="none" pointer-events="all"/><g fill="rgb(240, 240, 240)" font-family="Helvetica" font-weight="bold" text-anchor="middle" font-size="11px"><text x="159" y="454">Yes</text></g><rect x="337" y="440" width="25" height="20" fill="none" stroke="none" pointer-events="all"/><g fill="rgb(240, 240, 240)" font-family="Helvetica" font-weight="bold" text-anchor="middle" font-size="11px"><text x="349" y="454">No</text></g></g></svg>